PathFileType	4	(X/Y/Z)	C:/Users/beibeiliu/ov580/test_trc\sequence.32_training_dense_left.trc
DataRate	CameraRate	NumFrames	NumMarkers	Units	OrigDataRate	OrigDataStartFrame	OrigNumFrames
120	120	24	19	mm	120	78	103
Frame#	Time	ThumbCMC			ThumbMCP			ThumbIP			ThumbTip			IndexMCP			IndexPIP			IndexTip			MiddleMCP			MiddlePIP			MiddleTip			RingMCP			RingPIP			RingTip			PinkyMCP			PinkyPIP			PinkyTip			BackHand1			BackHand2			BackHand3	
		X0	Y0	Z0	X1	Y1	Z1	X2	Y2	Z2	X3	Y3	Z3	X4	Y4	Z4	X5	Y5	Z5	X6	Y6	Z6	X7	Y7	Z7	X8	Y8	Z8	X9	Y9	Z9	X10	Y10	Z10	X11	Y11	Z11	X12	Y12	Z12	X13	Y13	Z13	X14	Y14	Z14	X15	Y15	Z15	X16	Y16	Z16	X17	Y17	Z17	X18	Y18	Z18	
77	0.641667	-148.599	71.7485	122.373	-123.229	69.4827	114.766	-99.618	73.7672	102.044	-84.5569	80.9005	95.3149	-112.397	26.7216	72.7537	-93.2985	13.8705	62.6611	-80.7213	-0.783669	46.4852	-120.754	1.95618	73.6891	-106.797	-18.2435	76.3669	-90.4311	-44.0227	82.0777	-135.267	-12.9792	90.2802	-121.364	-29.8624	113.059	-112.583	-28.9229	142.885	-150.925	-17.8807	100.884	-138.696	-19.1126	126.788	-133.937	0.535932	146.075	-178.077	27.3793	84.7947	-197.009	45.4695	103.208	-164.79	56.9086	94.2945	
78	0.65	-168.455	84.7419	115.89	-143.498	88.1573	105.771	-124.178	95.9381	93.3078	-110.198	106.235	82.9322	-114.497	47.8454	70.7225	-95.2358	44.1526	63.0299	-77.7918	33.6699	49.5038	-118.499	19.2579	77.0853	-90.5355	7.15354	80.9743	-67.2102	-3.97527	85.2901	-124.567	6.44684	93.3958	-103.669	-3.37965	115.648	-91.0081	-0.777498	139.208	-139.198	-3.32127	104.684	-123.899	3.51771	132.19	-125.236	22.058	152.728	-177.288	26.9942	88.5899	-200.391	35.9305	101.672	-176.245	60.568	93.2301	
79	0.658333	-188.331	77.3661	106.739	-170.234	91.6776	95.2665	-154.901	105.671	77.4412	-147.492	117.864	66.5539	-128.646	59.191	63.9996	-103.9	60.7704	52.3187	-88.8137	59.9698	39.7283	-116.494	34.6125	74.1686	-93.0081	36.1091	76.519	-64.6096	31.0772	79.5735	-114.154	25.1445	94.2299	-96.5031	26.2334	112.542	-80.1579	36.3696	130.648	-125.981	10.8735	106.524	-116.194	22.2356	129.545	-123.691	43.1622	149.021	-175.088	17.1463	89.2015	-200.434	21.1947	99.3945	-188.42	49.689	86.4812	
80	0.666667	-205.362	51.41	97.2006	-198.536	70.8887	82.5197	-187.15	81.3408	59.7692	-186.148	94.7728	46.5317	-146.91	47.0058	44.8016	-127.796	52.843	31.4521	-112.469	57.0047	14.8143	-127.706	29.9794	59.3596	-102.858	37.1803	56.1866	-78.5221	45.4266	53.0844	-123.027	24.7314	79.8449	-103.995	37.584	89.9818	-84.5796	57.4977	104.298	-121.22	12.616	100.9	-119.009	32.7192	113.519	-127.907	52.8267	134.106	-170.022	-4.03631	83.9647	-198.517	-2.72012	103.021	-198.921	22.6945	83.0605	
81	0.675	-222.216	21.2552	90.6285	-215.737	36.1828	71.4299	-216.033	44.9009	47.0566	-219.937	55.0927	32.8514	-173.381	13.4019	31.9762	-158.744	17.7118	13.9802	-143.364	19.3706	-7.89285	-148.564	4.66277	39.6036	-127.921	14.5745	28.3783	-101.089	21.5373	20.5032	-134.949	1.72766	62.8918	-115.46	18.3458	64.2386	-98.9804	46.0081	66.2152	-132.128	0.665064	82.1166	-127.612	22.6461	92.2088	-135.912	45.3039	111.783	-175.508	-30.5326	85.2921	-194.773	-33.3369	108.066	-206.822	-11.0026	82.1794	
82	0.683333	-233.963	-7.67926	88.9009	-230.998	4.51322	70.6274	-237.815	9.7147	41.8181	-246.338	14.1815	24.9553	-201.52	-25.3423	23.2294	-193.317	-22.7027	1.75154	-180.932	-26.4007	-20.4567	-173.959	-32.9068	30.5448	-153.519	-23.3459	8.61954	-132.135	-15.7794	-7.64433	-153.319	-27.258	45.8426	-134.979	-10.5693	40.0037	-123.176	14.0222	30.3451	-147.444	-27.5472	68.1995	-140.338	-0.0584004	70.9986	-146.597	24.7969	83.2176	-187.514	-54.0474	80.4409	-203.149	-54.5289	109.525	-219.607	-41.7577	86.1984	
83	0.691667	-242.905	-18.9012	92.3227	-246.305	-8.4679	67.4016	-254.298	-8.2162	43.3425	-267.583	-3.43214	25.8703	-225.525	-47.963	24.3994	-220.827	-51.0205	-0.287415	-217.283	-58.0685	-22.8145	-193.43	-59.0233	23.6105	-178.815	-54.8144	3.17185	-163.21	-50.9669	-18.2596	-174.743	-51.559	37.4811	-157.219	-37.8753	23.9396	-140.992	-18.4239	8.45242	-161.542	-45.8583	58.2005	-153.948	-20.45	57.0256	-160.526	8.66539	61.2419	-198.688	-69.5894	82.5189	-208.546	-65.1503	113.183	-232.379	-54.2538	87.3547	
84	0.7	-251.673	-17.0808	87.9883	-254.726	-7.59539	64.6222	-269.268	-4.10182	43.506	-278.278	0.115357	28.2936	-244.427	-52.2347	25.9654	-242.376	-58.4511	-1.62287	-245.927	-65.7342	-19.5711	-216.492	-64.4904	20.7118	-203.368	-67.2991	1.98458	-191.291	-67.8676	-25.3445	-191.357	-61.8644	32.1748	-176.146	-49.7026	13.0414	-161.069	-37.1113	-4.87624	-179.547	-53.4722	48.7638	-167.228	-30.6624	47.9808	-168.318	-2.87937	48.8258	-214.684	-75.113	81.8233	-221.539	-63.2453	114.162	-245.724	-52.0177	88.5943	
85	0.708333	-252.33	-1.00466	90.3518	-253.755	5.53124	65.0959	-266.055	11.5932	44.7498	-280.158	20.1626	29.4654	-257.058	-39.7695	24.2153	-258.275	-43.162	3.80345	-264.955	-53.0968	-18.5257	-235.104	-56.1817	21.5317	-224.217	-59.4632	-4.11235	-214.766	-64.208	-26.7007	-207.081	-59.6517	28.823	-194.72	-50.0553	9.64065	-174.638	-43.4713	-9.9205	-189.534	-53.7933	44.1383	-179.324	-33.4925	42.3803	-168.601	-3.41817	45.5335	-229.332	-65.6911	82.2302	-233.559	-55.3099	108.865	-254.555	-36.4606	91.622	
86	0.716667	-241.849	19.2155	92.4778	-243.461	31.4291	67.6395	-254.089	44.6075	50.4454	-265.774	56.0089	31.4336	-261.69	-10.0105	25.536	-269.146	-8.47347	1.49242	-278.496	-16.3762	-20.7179	-245.788	-34.789	21.1818	-239.359	-36.8457	-3.25229	-233.056	-46.875	-33.6439	-223.009	-41.695	24.7716	-204.355	-40.0134	4.60595	-190.147	-38.2932	-11.9111	-207.833	-44.9688	40.2796	-188.277	-25.9247	37.6124	-168.516	-8.47725	43.5216	-242.669	-45.7471	79.7461	-244.391	-37.3984	105.535	-258.449	-11.4574	89.5997	
87	0.725	-222.284	37.6189	93.1876	-219.876	51.9473	69.8984	-226.049	63.2029	49.8173	-229.615	82.7304	38.1713	-254.563	23.1391	23.2628	-258.918	25.0963	2.19708	-270.525	25.1922	-20.3475	-249.93	-2.58271	15.3451	-245.596	-6.62298	-7.81614	-242.282	-14.896	-33.1579	-231.652	-24.4689	21.2324	-215.943	-24.1692	2.43419	-198.252	-27.1581	-18.4606	-218.833	-32.3189	36.5019	-190.735	-25.2091	34.9325	-168.693	-13.7658	42.8076	-252.5	-21.706	75.3464	-246.299	-17.3069	107.076	-250.12	13.8457	89.0689	
88	0.733333	-194.186	42.3612	92.7391	-185.357	52.7605	72.6151	-183.082	73.6865	51.4599	-179.779	87.0929	36.7903	-225.665	46.9644	26.1754	-228.492	55.0773	-0.704682	-238.277	56.3083	-19.3077	-236.623	21.5434	13.0781	-234.194	17.4268	-11.0068	-233.564	14.3902	-34.7733	-231.016	-3.23812	20.5431	-216.746	-9.34142	0.724545	-202.132	-20.3333	-19.7845	-223.712	-17.3125	32.5691	-198.414	-22.7706	31.6799	-171.812	-26.0127	42.192	-246.762	8.49333	74.2739	-242.716	5.1424	103.006	-227.887	35.822	84.7431	
89	0.741667	-165.757	31.4407	94.7872	-151.661	38.0975	75.769	-140.853	51.9664	54.8894	-128.308	62.3995	46.0224	-184.625	48.45	24.1593	-181.984	53.417	-1.44642	-184.517	62.9879	-23.028	-205.519	32.4556	12.1848	-201.714	27.7583	-11.4657	-205.313	21.4836	-36.7045	-211.959	10.6099	17.5428	-205.518	-5.28554	-1.17285	-192.466	-21.2189	-18.5439	-220.37	-8.51772	32.7933	-196.517	-25.7089	31.9741	-171.667	-34.8378	46.2443	-227.845	25.4957	71.3941	-226.856	22.9332	101.88	-197.109	43.2187	85.2339	
90	0.75	-143.65	19.4616	102.593	-129.787	17.5245	81.6047	-108.58	26.7789	61.8653	-95.4068	32.2431	50.1995	-153.773	30.2253	26.3714	-147.039	28.9021	4.31541	-144.516	33.8282	-22.7958	-175.981	20.7279	17.9699	-175.009	10.4967	-5.07718	-176.656	-0.215605	-34.5801	-191.221	5.31273	22.361	-188.474	-17.2225	4.42383	-183.038	-44.8121	-9.97711	-206.151	-11.9648	33.9161	-191.676	-31.7345	36.5866	-175.028	-46.8748	55.1503	-199.35	30.5932	70.4724	-205.95	30.2237	98.2293	-169.121	39.2826	87.1591	
91	0.758333	-132.173	14.1295	107.132	-114.178	7.78144	91.2531	-95.4113	8.43917	73.4562	-81.5526	9.23412	62.6577	-131.021	7.04107	27.2239	-127.338	0.452105	8.74478	-121.36	-0.724265	-15.0175	-156.72	0.487778	22.7801	-156.175	-18.0873	-0.736458	-159.12	-32.5369	-23.0238	-176.948	-15.5029	25.0386	-178.909	-37.7119	18.0254	-175.979	-66.4435	13.3083	-194.722	-16.7848	42.4403	-186.817	-45.2415	51.097	-173.238	-58.1814	76.6677	-184.247	26.1657	68.0208	-189.149	33.3166	95.5856	-155.537	29.9615	84.9385	
92	0.766667	-127.489	18.1279	112.006	-111.207	8.99524	98.1301	-88.3231	9.96545	78.0332	-73.0713	9.63637	67.8193	-124.367	-4.31524	37.7525	-114.646	-14.9378	17.2514	-110.65	-20.3615	-2.42248	-149.558	-15.7584	29.3513	-145.987	-36.9106	14.5788	-140.889	-57.6384	-6.30533	-168.334	-29.069	37.0897	-165.026	-56.0786	34.3942	-158.557	-80.6428	36.4507	-184.974	-31.596	51.2995	-174.617	-53.8439	65.8513	-159.97	-58.5351	94.5411	-180.775	18.3485	68.9735	-183.169	32.8436	98.2723	-153.556	28.835	88.5187	
93	0.775	-130.158	32.9292	114.336	-108.014	27.6742	99.1787	-89.6843	28.79	85.3891	-71.049	35.1645	77.5278	-114.073	3.72699	46.4565	-102.772	-8.82932	29.8561	-93.071	-16.9912	6.71775	-132.782	-19.0039	37.6463	-126.391	-36.757	28.6295	-120.109	-60.4833	13.0045	-152.411	-35.6693	49.1753	-144.298	-56.1133	51.7343	-129.142	-81.8442	58.6124	-166.53	-35.5061	62.6511	-153.269	-52.6358	81.6361	-141.016	-50.467	110.763	-174.379	17.2066	70.4243	-182.758	31.0662	96.5834	-152.868	35.9322	87.9431	
94	0.783333	-143.032	49.1925	113.309	-116.58	54.0458	101.698	-96.811	58.4147	82.166	-84.0298	63.9426	74.1265	-109.778	18.2821	48.1921	-98.4649	7.28593	33.7134	-85.5721	0.846495	15.7691	-121.51	-7.4695	44.7619	-107.016	-24.1862	37.2934	-94.7723	-46.6916	24.05	-135.864	-27.5547	59.5115	-120.633	-43.2656	64.518	-101.52	-66.9174	72.8696	-149.623	-31.9151	73.8785	-137.7	-43.2665	94.4592	-122.127	-35.7214	122.606	-174.692	14.6085	74.7198	-191.573	28.6301	95.116	-162.974	40.1367	86.8307	
95	0.791667	-156.67	58.5435	108.469	-134.226	68.2974	98.805	-116.658	73.9523	76.8687	-103.75	87.6043	69.9884	-114.616	30.7767	45.8848	-98.5616	23.0563	32.7003	-83.7771	16.775	13.1609	-120.54	0.377746	47.1228	-102.901	-7.71852	42.7778	-80.8389	-27.3568	31.9846	-126.029	-19.2197	64.9024	-108.513	-28.6263	70.8869	-84.7435	-40.7482	78.9558	-140.61	-27.5956	80.5817	-119.884	-25.0211	105.354	-109.815	-11.969	126.3	-176.638	8.12202	71.347	-195.212	21.5065	95.8147	-170.9	45.3084	82.4015	
96	0.8	-172.685	63.1636	101.177	-154.02	74.9316	87.9888	-138.9	90.4704	66.8663	-130.471	100.914	55.9772	-126.769	44.0636	43.8989	-107.348	45.4735	28.9691	-91.6883	39.0184	9.0208	-122.791	13.5807	49.1735	-98.0373	6.34181	42.557	-75.1856	-0.911678	34.2083	-117.886	-1.26658	64.4598	-94.9895	-5.58581	70.8913	-70.6817	-9.59035	78.7105	-125.152	-11.3755	84.3169	-111.456	-2.02691	105.72	-106.513	10.6254	129.234	-174.913	3.73362	73.1048	-198.288	9.56897	91.8126	-182.92	42.3424	81.8491	
97	0.808333	-188.643	59.1676	96.8964	-175.014	76.8535	82.5101	-164.508	88.7694	62.939	-159.471	105.571	44.445	-143.421	50.7988	39.4196	-122.143	55.9799	20.863	-106.541	55.05	1.74494	-125.552	21.6012	46.5956	-99.3001	25.0029	37.7471	-74.9867	25.1156	28.5895	-116.81	11.9763	62.6049	-93.4738	13.2576	68.0937	-67.8581	19.2982	71.3114	-119.879	2.55752	83.7714	-108.253	19.9149	103.285	-108.438	36.6374	126.893	-173.129	3.08821	72.7494	-196.749	0.740992	98.0107	-189.061	31.334	76.9255	
98	0.816667	-201.885	53.3198	93.9427	-191.741	72.4991	79.613	-183.637	84.5865	54.4918	-180.73	95.571	40.1279	-154.077	44.9993	35.8256	-136.829	54.145	16.2592	-125.014	54.5045	-2.5062	-132.657	23.9675	42.225	-112.09	30.7177	33.4494	-82.434	34.3792	20.2511	-120.263	15.2563	60.1603	-99.2408	21.792	62.5944	-76.5092	34.1473	61.2469	-121.524	8.71844	81.759	-112.383	29.4349	98.5326	-116.046	48.8153	122.282	-171.574	-3.4781	75.507	-194.329	-8.22013	101.151	-198.374	23.9276	80.3484	
99	0.825	-209.924	36.5276	91.1439	-204.871	55.0565	73.3685	-205.446	67.7502	52.3809	-205.467	78.5985	36.5377	-170.279	30.1491	28.5455	-160.126	36.9892	11.5988	-147.922	38.5738	-11.7698	-148.183	12.0498	37.2254	-126.47	22.0157	22.2204	-102.34	28.1993	6.0143	-130.078	7.91418	53.5937	-112.482	20.3295	49.4893	-91.2903	34.8749	44.2505	-131.73	2.81933	74.604	-120.228	25.8907	87.9008	-126.77	46.6427	107.304	-178.354	-17.8229	79.0589	-196.616	-18.6822	102.656	-207.854	4.12961	81.7737	
100	0.833333	-226.919	17.4788	94.0055	-225.022	33.5562	68.4418	-227.281	41.2982	46.6424	-232.299	50.4194	28.9581	-197.476	2.4422	24.805	-188.238	6.1803	3.79527	-177.774	4.28016	-23.2215	-168.307	-12.6213	26.9307	-153.42	-6.16664	11.5631	-132.85	2.33957	-10.2181	-153.516	-14.4638	44.9347	-135.019	-0.981935	35.4077	-111.859	14.6195	24.709	-143.318	-13.1858	67.9847	-136.944	12.5758	72.2528	-139.812	37.0998	88.9696	-190.602	-36.2138	80.306	-208.499	-33.7595	109.604	-221.769	-13.7313	82.7727	
